<?xml version="1.0" encoding="UTF-8"?>
<svg version="1.1" xmlns="http://www.w3.org/2000/svg" width="501" height="498">
<path d="M0 0 C0.94786377 0.51965332 1.89572754 1.03930664 2.87231445 1.57470703 C9.4770549 5.21483544 16.01428643 8.9584561 22.48095703 12.83862305 C29.86151668 17.25753848 37.45622531 21.28258025 45.03125 25.35546875 C55.46039988 30.96300437 65.82259873 36.6508045 76.04467773 42.62841797 C80.97360088 45.51043547 85.94573469 48.2871137 90.9765625 50.98828125 C93.46707233 52.36333472 95.88780322 53.82479172 98.3125 55.3125 C101.84191982 57.4579426 105.41617784 59.36993152 109.125 61.1875 C117.8639843 65.47836376 126.23699334 70.3973359 134.5625 75.4375 C140.65416189 79.12036748 146.89919123 82.53186026 153.234375 85.77734375 C160.53234031 89.57752734 167.12844989 93.39915464 171.3125 100.6875 C173.3298667 107.5702805 173.52392417 114.60219172 173.50871277 121.73718262 C173.51097833 122.53481506 173.51324388 123.3324475 173.51557809 124.15425062 C173.52185733 126.80011452 173.52109268 129.4459264 173.52026367 132.09179688 C173.52325887 133.99968023 173.52666223 135.90756298 173.53044128 137.81544495 C173.53924654 142.97857802 173.54161787 148.14169451 173.54225707 153.30483437 C173.54296929 156.53370459 173.54510682 159.76257064 173.54775429 162.99143982 C173.55699464 174.26431546 173.56109062 185.53717929 173.56030273 196.81005859 C173.55970157 207.30571268 173.57026427 217.80131544 173.5860464 228.29695654 C173.59913118 237.32141025 173.60448627 246.34584719 173.60384732 255.37031031 C173.60359271 260.75449589 173.60642406 266.13863578 173.61702538 271.52281189 C173.62672268 276.58553322 173.62677432 281.64816529 173.61950874 286.71088982 C173.61846509 288.56478443 173.62081272 290.41868465 173.6268692 292.27256966 C173.63462297 294.81108957 173.62992218 297.34930374 173.62223816 299.88781738 C173.6299535 300.97738778 173.6299535 300.97738778 173.63782471 302.08896971 C173.58228827 310.44131759 172.3306042 318.11401141 166.375 324.3125 C164.17023275 326.12346063 161.83918949 327.56847942 159.375 329 C158.69219971 329.4115332 158.00939941 329.82306641 157.3059082 330.24707031 C155.00681566 331.62227632 152.69333953 332.97000994 150.375 334.3125 C149.51052246 334.81539551 148.64604492 335.31829102 147.75537109 335.83642578 C136.20922775 342.53547528 124.54436019 348.99627936 112.7890625 355.3203125 C102.24739158 360.99228319 91.76416083 366.74333158 81.39013672 372.71679688 C74.50044943 376.68197236 67.5684573 380.56736769 60.625 384.4375 C52.66881425 388.87552481 44.76840007 393.38908885 36.93408203 398.03857422 C30.66733809 401.75191194 24.28394078 405.22449436 17.859375 408.65625 C12.87024604 411.34500213 7.96497102 414.13894599 3.10083008 417.04614258 C-18.65063953 430.03213019 -18.65063953 430.03213019 -29.625 429.3125 C-35.854365 427.71901049 -41.33411501 425.07515804 -46.875 421.875 C-47.64674561 421.43816895 -48.41849121 421.00133789 -49.21362305 420.55126953 C-51.68917939 419.14707469 -54.15776964 417.73126637 -56.625 416.3125 C-59.89541594 414.43677149 -63.16645539 412.5621319 -66.4375 410.6875 C-67.28868408 410.19870361 -68.13986816 409.70990723 -69.0168457 409.20629883 C-78.00227128 404.06258035 -87.07151189 399.07282279 -96.1496582 394.09521484 C-107.56355901 387.82779235 -118.9027499 381.44812952 -130.00976562 374.6484375 C-135.44756822 371.35059513 -141.02778984 368.32983847 -146.625 365.3125 C-147.53531982 364.82168945 -148.44563965 364.33087891 -149.38354492 363.82519531 C-151.24127469 362.82436047 -153.09910556 361.82371327 -154.95703125 360.82324219 C-166.15504985 354.78575625 -177.26773067 348.61294269 -188.32421875 342.3203125 C-191.62816046 340.43998184 -194.94038451 338.57751411 -198.26953125 336.7421875 C-221.73666801 323.79452445 -221.73666801 323.79452445 -224.20005584 315.3385219 C-225.40866998 310.07907496 -225.91156383 305.16809232 -225.87896729 299.78065491 C-225.88208727 298.97147737 -225.88520725 298.16229984 -225.88842177 297.32860178 C-225.89633692 294.64355213 -225.89010364 291.95873258 -225.88378906 289.27368164 C-225.88650183 287.33786386 -225.89006436 285.40204711 -225.89440918 283.4662323 C-225.90350204 278.2265656 -225.90000156 272.98697795 -225.89365101 267.74730992 C-225.88857422 262.25336707 -225.89328719 256.75943081 -225.89642334 251.26548767 C-225.9000584 242.03969106 -225.89527628 232.81392651 -225.88574219 223.58813477 C-225.87486177 212.93685366 -225.8783821 202.28564915 -225.889395 191.63436991 C-225.89848483 182.47486564 -225.89974476 173.31538438 -225.89451766 164.15587705 C-225.89140688 158.69174059 -225.89096401 153.22764006 -225.89759064 147.76350594 C-225.90338804 142.62444174 -225.89932348 137.48547583 -225.88780212 132.3464222 C-225.88516818 130.46553714 -225.88589888 128.58464374 -225.89032745 126.70376205 C-225.94446248 101.36658614 -225.94446248 101.36658614 -219.265625 94.44921875 C-207.29107395 84.75975215 -192.69156766 78.03608424 -179.19213867 70.77294922 C-164.28848573 62.74172175 -149.60319398 54.36435922 -134.9621582 45.86645508 C-133.74338989 45.15912231 -133.74338989 45.15912231 -132.5 44.4375 C-131.70875732 43.97819092 -130.91751465 43.51888184 -130.10229492 43.0456543 C-123.5079108 39.22608275 -116.8385362 35.56365719 -110.1171875 31.97265625 C-103.63898717 28.48216324 -97.29443437 24.79613907 -90.98974609 21.00292969 C-87.31958967 18.8153038 -83.62334891 16.78156226 -79.7890625 14.89453125 C-74.25184496 12.16813255 -68.91540317 9.13146135 -63.5625 6.0625 C-56.41014828 1.99695271 -49.25004767 -2.04821455 -42 -5.9375 C-40.98087524 -6.4929248 -40.98087524 -6.4929248 -39.94116211 -7.05957031 C-24.90103316 -15.04778393 -13.51386907 -7.4556748 0 0 Z " fill="#3949AA" transform="translate(276.625,39.6875)"/>
<path d="M0 0 C1.75751587 -0.0141394 1.75751587 -0.0141394 3.55053711 -0.02856445 C16.48403243 0.01946156 28.61268192 2.38371592 41.04443359 5.74414062 C42.74932528 6.19971653 44.46219105 6.62519539 46.17578125 7.046875 C64.93001049 12.09884018 82.33627528 23.78228757 96.9375 36.25 C97.67097656 36.85972656 98.40445313 37.46945313 99.16015625 38.09765625 C103.90902464 42.1145218 107.9680367 46.46993052 111.9375 51.25 C112.68386719 52.13171875 113.43023437 53.0134375 114.19921875 53.921875 C118.55709419 59.13691933 122.7214121 64.24663592 125.9375 70.25 C124.71254929 73.92485212 123.8579845 74.14787403 120.546875 75.96484375 C119.6199585 76.48022705 118.69304199 76.99561035 117.73803711 77.52661133 C116.73135986 78.07470459 115.72468262 78.62279785 114.6875 79.1875 C112.57910777 80.35619497 110.47104187 81.5254788 108.36328125 82.6953125 C107.29029785 83.28731445 106.21731445 83.87931641 105.11181641 84.48925781 C100.34056633 87.13579339 95.60749893 89.84747568 90.875 92.5625 C90.01165039 93.05524414 89.14830078 93.54798828 88.25878906 94.05566406 C84.39049078 96.26378673 80.5300583 98.48287178 76.69140625 100.7421875 C76.05017822 101.11690186 75.4089502 101.49161621 74.74829102 101.87768555 C73.07911262 102.85461738 71.41434425 103.83907381 69.75 104.82421875 C67.07779961 106.17887589 64.889249 106.84304931 61.9375 107.25 C61.44121094 106.60933594 60.94492187 105.96867187 60.43359375 105.30859375 C47.6944418 89.08853501 32.16834536 77.44352019 11.171875 74.52734375 C-9.364538 72.76637114 -28.71967132 76.4056984 -45.06640625 89.69140625 C-58.53169461 101.31898446 -68.62447417 116.30805957 -71.0625 134.25 C-72.64299923 156.24173864 -69.05829158 176.70870684 -54.2253418 193.86254883 C-41.55486545 207.9868348 -24.33786914 217.28440672 -5.29296875 218.48828125 C14.93978553 219.04592607 33.58221887 213.94358738 48.9375 200.25 C49.54980469 199.70730469 50.16210938 199.16460937 50.79296875 198.60546875 C55.62815021 194.04780323 59.28099709 188.77365333 62.9375 183.25 C66.54278468 184.62404207 69.90810125 186.22292946 73.3046875 188.05078125 C74.34431641 188.60967041 75.38394531 189.16855957 76.45507812 189.74438477 C77.56302734 190.34436279 78.67097656 190.94434082 79.8125 191.5625 C80.95912109 192.18116943 82.10574219 192.79983887 83.28710938 193.43725586 C91.98877696 198.14393584 100.61884867 202.9720488 109.19873047 207.89770508 C115.01627455 211.22424057 120.91172493 214.31720803 126.9375 217.25 C124.67417082 227.2644384 116.39864725 235.61186956 109.9375 243.25 C109.08296643 244.33304394 108.22872346 245.41631736 107.375 246.5 C104.17566107 250.10951058 100.60476407 253.13008878 96.9375 256.25 C96.36580078 256.76908936 95.79410156 257.28817871 95.20507812 257.82299805 C90.43278577 262.12148343 85.5013833 265.77722555 80.0625 269.1875 C79.24604004 269.70111084 78.42958008 270.21472168 77.58837891 270.74389648 C63.53370227 279.37516908 48.50532944 285.08149105 32.5 288.875 C31.18418945 289.19984375 31.18418945 289.19984375 29.84179688 289.53125 C9.5881591 294.36704856 -12.80807355 293.79954071 -33.0625 289.25 C-33.75005371 289.09966309 -34.43760742 288.94932617 -35.14599609 288.79443359 C-58.34241645 283.48214993 -80.39460432 271.14115405 -97.48828125 254.703125 C-99.51970783 252.7672587 -101.55925163 250.99457765 -103.75 249.25 C-120.1768414 235.34114158 -132.53258421 212.51094342 -138.75 192.1875 C-139.04455078 191.25873047 -139.33910156 190.32996094 -139.64257812 189.37304688 C-151.476721 151.47719608 -146.11831231 110.38068531 -128.15625 75.5 C-123.34551115 66.66716802 -117.50877224 58.93883924 -111.0625 51.25 C-110.33675781 50.38117188 -109.61101562 49.51234375 -108.86328125 48.6171875 C-104.61515376 43.69303186 -100.09740582 39.35894613 -95.0625 35.25 C-94.56476074 34.83991699 -94.06702148 34.42983398 -93.55419922 34.00732422 C-74.02333927 17.98659222 -52.82138081 7.52705824 -28.0625 2.25 C-26.969375 2.00507812 -25.87625 1.76015625 -24.75 1.5078125 C-16.55396114 0.01203541 -8.30986167 0.05044828 0 0 Z " fill="#FDFDFE" transform="translate(250.0625,102.75)"/>
<path d="M0 0 C0.94786377 0.51965332 1.89572754 1.03930664 2.87231445 1.57470703 C9.4770549 5.21483544 16.01428643 8.9584561 22.48095703 12.83862305 C29.86151668 17.25753848 37.45622531 21.28258025 45.03125 25.35546875 C55.46039988 30.96300437 65.82259873 36.6508045 76.04467773 42.62841797 C80.97360088 45.51043547 85.94573469 48.2871137 90.9765625 50.98828125 C93.46707233 52.36333472 95.88780322 53.82479172 98.3125 55.3125 C101.84191982 57.4579426 105.41617784 59.36993152 109.125 61.1875 C117.8639843 65.47836376 126.23699334 70.3973359 134.5625 75.4375 C140.65416189 79.12036748 146.89919123 82.53186026 153.234375 85.77734375 C159.36175694 88.96798324 164.40859395 92.50262824 169.375 97.3125 C168.375 99.3125 168.375 99.3125 167.375 100.3125 C166.37210937 100.23644531 165.36921875 100.16039062 164.3359375 100.08203125 C159.1907848 100.38140404 156.26684187 102.27819797 152 105 C150.4899695 105.92641099 148.97955695 106.85219956 147.46875 107.77734375 C146.75589844 108.22062012 146.04304688 108.66389648 145.30859375 109.12060547 C140.937677 111.81490036 136.40011688 114.21569415 131.88671875 116.66015625 C120.89981835 122.62265647 110.05532112 128.8157148 99.375 135.3125 C98.9625 134.63445312 98.55 133.95640625 98.125 133.2578125 C92.68781172 124.49520103 86.77833702 116.51574683 79.375 109.3125 C78.64023437 108.38824219 77.90546875 107.46398437 77.1484375 106.51171875 C74.35005471 103.12851467 71.1699824 100.52590898 67.6875 97.875 C66.75514526 97.15787842 66.75514526 97.15787842 65.80395508 96.42626953 C64.00050906 95.04660188 62.18862753 93.67873816 60.375 92.3125 C59.53710938 91.66925781 58.69921875 91.02601563 57.8359375 90.36328125 C27.89034478 68.28998352 -11.50380306 59.92254139 -48.09570312 65.13256836 C-51.63725149 65.73660624 -55.1300728 66.48247521 -58.625 67.3125 C-59.71699707 67.56193359 -59.71699707 67.56193359 -60.83105469 67.81640625 C-84.28144145 73.30068899 -104.52845832 84.52927028 -122.625 100.3125 C-123.40101563 100.95574219 -124.17703125 101.59898437 -124.9765625 102.26171875 C-130.98827491 107.35411431 -135.80082976 113.10400264 -140.625 119.3125 C-141.72134766 120.65054688 -141.72134766 120.65054688 -142.83984375 122.015625 C-155.19043727 137.55696939 -163.49029064 156.21989502 -167.9375 175.5 C-168.09718262 176.18779541 -168.25686523 176.87559082 -168.42138672 177.58422852 C-170.79996986 188.80036503 -170.80642379 200.33280531 -170.8125 211.75 C-170.83086914 213.56081055 -170.83086914 213.56081055 -170.84960938 215.40820312 C-170.86894433 227.45387789 -169.45260443 238.9420009 -165.8125 250.4375 C-165.41937622 251.71089233 -165.41937622 251.71089233 -165.01831055 253.01000977 C-161.49915651 264.43452743 -161.49915651 264.43452743 -155.85546875 274.87890625 C-154.625 277.3125 -154.625 277.3125 -155.03125 279.38671875 C-157.28457376 282.10948496 -160.04445212 283.51384926 -163.125 285.125 C-164.57791243 285.91335996 -166.02965068 286.70388615 -167.48046875 287.49609375 C-168.29177246 287.93679199 -169.10307617 288.37749023 -169.93896484 288.83154297 C-175.15002789 291.70468499 -180.28822623 294.70551235 -185.4375 297.6875 C-186.54738281 298.32800293 -187.65726563 298.96850586 -188.80078125 299.62841797 C-194.02593292 302.64463066 -199.24466383 305.67102917 -204.44921875 308.72265625 C-205.32924561 309.23715332 -206.20927246 309.75165039 -207.1159668 310.28173828 C-208.75113059 311.23862016 -210.38421777 312.1990623 -212.01489258 313.16357422 C-217.40172274 316.3125 -217.40172274 316.3125 -219.625 316.3125 C-219.13 317.7975 -219.13 317.7975 -218.625 319.3125 C-218.27679959 320.97612417 -217.94095508 322.64245171 -217.625 324.3125 C-223.03877137 319.32613163 -224.63704313 315.48544511 -225.625 308.3125 C-225.71743792 305.57992103 -225.76438321 302.8734104 -225.75871277 300.14141846 C-225.7621111 298.93149707 -225.7621111 298.93149707 -225.76557809 297.69713283 C-225.77189216 295.00282646 -225.77109039 292.30857074 -225.77026367 289.61425781 C-225.77325681 287.67888321 -225.77665969 285.74350921 -225.78044128 283.80813599 C-225.78927044 278.55591804 -225.79161896 273.30371639 -225.79225707 268.05149174 C-225.79296827 264.76785424 -225.79510392 261.48422088 -225.79775429 258.20058441 C-225.8070046 246.73853798 -225.81108963 235.27650317 -225.81030273 223.81445312 C-225.80970224 213.14108619 -225.82024929 202.46776985 -225.8360464 191.79441571 C-225.84913646 182.62223742 -225.854486 173.45007562 -225.85384732 164.27788806 C-225.85359274 158.80364119 -225.85642208 153.32943927 -225.86702538 147.85520172 C-225.87673083 142.70387374 -225.87676875 137.55263347 -225.86950874 132.40130234 C-225.8684659 130.51557919 -225.8708079 128.62985051 -225.8768692 126.74413681 C-225.95310037 101.37553253 -225.95310037 101.37553253 -219.265625 94.44921875 C-207.29107395 84.75975215 -192.69156766 78.03608424 -179.19213867 70.77294922 C-164.28848573 62.74172175 -149.60319398 54.36435922 -134.9621582 45.86645508 C-133.74338989 45.15912231 -133.74338989 45.15912231 -132.5 44.4375 C-131.70875732 43.97819092 -130.91751465 43.51888184 -130.10229492 43.0456543 C-123.5079108 39.22608275 -116.8385362 35.56365719 -110.1171875 31.97265625 C-103.63898717 28.48216324 -97.29443437 24.79613907 -90.98974609 21.00292969 C-87.31958967 18.8153038 -83.62334891 16.78156226 -79.7890625 14.89453125 C-74.25184496 12.16813255 -68.91540317 9.13146135 -63.5625 6.0625 C-56.41014828 1.99695271 -49.25004767 -2.04821455 -42 -5.9375 C-40.98087524 -6.4929248 -40.98087524 -6.4929248 -39.94116211 -7.05957031 C-24.90103316 -15.04778393 -13.51386907 -7.4556748 0 0 Z " fill="#5D6BBF" transform="translate(276.625,39.6875)"/>
<path d="M0 0 C3.32526454 2.93405695 5.55017498 5.76608906 7.75 9.625 C11.21918092 15.61803233 15.50768982 20.75109021 20 26 C20.61101562 26.73476563 21.22203125 27.46953125 21.8515625 28.2265625 C25.8624223 32.96999943 30.20306824 37.0596632 35 41 C35.66515625 41.55300781 36.3303125 42.10601562 37.015625 42.67578125 C54.17700231 56.50022409 74.42536495 67.19014598 96 72 C96.71236816 72.16081055 97.42473633 72.32162109 98.15869141 72.48730469 C126.6774017 78.61424798 161.85276739 76.76962178 188 63 C189.22577394 62.4148709 190.45382951 61.83450802 191.68359375 61.2578125 C204.58962633 55.13541807 216.45891704 47.88994205 226.8515625 38.0078125 C229 36 229 36 231.51171875 34.046875 C238.78500645 28.06382515 244.16926394 19.53689988 249.54956055 11.85986328 C254.33055217 5.03941395 254.33055217 5.03941395 257 2 C257.66 2 258.32 2 259 2 C259 2.66 259 3.32 259 4 C260.2375 4.3403125 260.2375 4.3403125 261.5 4.6875 C264.2581202 5.72179508 266.10000774 6.61509128 268.5 8.1875 C274.36323071 12.01234191 280.7170895 14.93796356 287 18 C287 18.66 287 19.32 287 20 C287.85851562 20.26554687 288.71703125 20.53109375 289.6015625 20.8046875 C293.02910808 22.01023801 296.14173798 23.47244386 299.375 25.125 C300.43460937 25.66382813 301.49421875 26.20265625 302.5859375 26.7578125 C303.38257813 27.16773438 304.17921875 27.57765625 305 28 C305 28.66 305 29.32 305 30 C305.515625 30.0825 306.03125 30.165 306.5625 30.25 C309.44539184 31.13704364 311.73375307 32.54519537 314.31640625 34.078125 C316.17268969 35.09455862 317.90979872 35.66556779 320 36 C320 36.66 320 37.32 320 38 C320.66 38 321.32 38 322 38 C322 38.66 322 39.32 322 40 C321.34 40 320.68 40 320 40 C319.67 41.65 319.34 43.3 319 45 C318.01 45 317.02 45 316 45 C315.67 45.66 315.34 46.32 315 47 C313.515 47.495 313.515 47.495 312 48 C311.70810791 48.78415283 311.41621582 49.56830566 311.11547852 50.3762207 C309.69432985 53.71898383 308.34983339 54.34061874 305.15234375 55.98046875 C303.6677063 56.75958618 303.6677063 56.75958618 302.15307617 57.55444336 C301.09193604 58.09335205 300.0307959 58.63226074 298.9375 59.1875 C296.74347738 60.3360345 294.55077497 61.48709437 292.359375 62.640625 C290.73612305 63.49043945 290.73612305 63.49043945 289.08007812 64.35742188 C284.22649724 66.94579316 279.50628541 69.74070244 274.79467773 72.5769043 C269.28376131 75.88170442 263.65492264 78.9492869 258 82 C257.04230713 82.51715576 256.08461426 83.03431152 255.09790039 83.56713867 C253.13632353 84.62581156 251.17457071 85.68415848 249.21264648 86.7421875 C240.67505603 91.35032284 232.16127511 95.98010541 223.76171875 100.8359375 C220.65117803 102.63321689 217.52435729 104.40059062 214.39453125 106.1640625 C213.38334229 106.73382813 212.37215332 107.30359375 211.33032227 107.890625 C209.33524222 109.01395452 207.339668 110.136407 205.34350586 111.2578125 C199.90117211 114.32502779 194.51766984 117.47073125 189.17041016 120.70068359 C186.66769287 122.19893572 184.13159056 123.61885691 181.5625 125 C180.63824219 125.50015625 179.71398437 126.0003125 178.76171875 126.515625 C176.99452075 127.46546268 175.22637928 128.4135484 173.45703125 129.359375 C168.47641831 132.04182312 163.58094591 134.83184011 158.72583008 137.73364258 C136.97436047 150.71963019 136.97436047 150.71963019 126 150 C119.770635 148.40651049 114.29088499 145.76265804 108.75 142.5625 C107.97825439 142.12566895 107.20650879 141.68883789 106.41137695 141.23876953 C103.93582061 139.83457469 101.46723036 138.41876637 99 137 C95.72958406 135.12427149 92.45854461 133.2496319 89.1875 131.375 C88.33631592 130.88620361 87.48513184 130.39740723 86.6081543 129.89379883 C77.62272872 124.75008035 68.55348811 119.76032279 59.4753418 114.78271484 C48.06144099 108.51529235 36.7222501 102.13562952 25.61523438 95.3359375 C20.17743178 92.03809513 14.59721016 89.01733847 9 86 C7.63452026 85.26378418 7.63452026 85.26378418 6.24145508 84.51269531 C4.38372531 83.51186047 2.52589444 82.51121327 0.66796875 81.51074219 C-11.4439512 74.98052029 -23.44718326 68.27524045 -35.40673828 61.47070312 C-38.55857997 59.68321542 -41.72053753 57.9143158 -44.88452148 56.1484375 C-46.83296147 55.05847892 -48.77683419 53.96090688 -50.71875 52.859375 C-52.71075809 51.73057042 -54.7091565 50.61281685 -56.71875 49.515625 C-61.77561837 46.63107332 -61.77561837 46.63107332 -63 43.1875 C-63 42.465625 -63 41.74375 -63 41 C-63.66 41 -64.32 41 -65 41 C-64.64193559 38.43953369 -64.37346463 37.30063195 -62.32373047 35.65063477 C-61.59557129 35.25158936 -60.86741211 34.85254395 -60.1171875 34.44140625 C-59.29081787 33.97951904 -58.46444824 33.51763184 -57.61303711 33.04174805 C-56.70948486 32.55359619 -55.80593262 32.06544434 -54.875 31.5625 C-52.95702766 30.49740229 -51.03905905 29.43229788 -49.12109375 28.3671875 C-48.11804199 27.81643555 -47.11499023 27.26568359 -46.08154297 26.69824219 C-41.00986613 23.90323473 -35.97575564 21.04216611 -30.9375 18.1875 C-29.96530518 17.63843994 -28.99311035 17.08937988 -27.99145508 16.52368164 C-18.55000346 11.1912276 -9.15731747 5.81137455 0 0 Z " fill="#283592" transform="translate(121,319)"/>
<path d="M0 0 C5.06330777 4.5803461 9.44427667 9.16861373 13 15 C13.66 15.66 14.32 16.32 15 17 C12.03 17.99 9.06 18.98 6 20 C6 20.66 6 21.32 6 22 C5.35417969 22.30550781 4.70835937 22.61101562 4.04296875 22.92578125 C-3.75954148 26.714962 -11.22219353 30.95866332 -18.67504883 35.3918457 C-19.46548584 35.8580835 -20.25592285 36.32432129 -21.0703125 36.8046875 C-21.77945801 37.22733887 -22.48860352 37.64999023 -23.21923828 38.08544922 C-25 39 -25 39 -27 39 C-27 39.66 -27 40.32 -27 41 C-28.04800781 41.38865234 -28.04800781 41.38865234 -29.1171875 41.78515625 C-32.28441532 43.11985524 -35.15085438 44.71392887 -38.125 46.4375 C-38.72916748 46.78603027 -39.33333496 47.13456055 -39.95581055 47.49365234 C-42.67523796 49.0641465 -45.3889856 50.64434337 -48.10302734 52.22412109 C-50.3389404 53.52541136 -52.57547697 54.82561877 -54.8125 56.125 C-55.59898926 56.58189209 -56.38547852 57.03878418 -57.19580078 57.50952148 C-64.98179485 62.0172426 -72.83453577 66.40332287 -80.69555664 70.77856445 C-85.70581269 73.57269367 -90.69698675 76.39013102 -95.640625 79.30078125 C-96.9409668 80.06551758 -96.9409668 80.06551758 -98.26757812 80.84570312 C-99.87423916 81.79503628 -101.47736682 82.75038582 -103.07617188 83.71289062 C-106.69992958 85.85435106 -109.72639564 87.55413183 -114 88 C-114.98916033 85.64960987 -115.96636681 83.29533139 -116.9375 80.9375 C-117.21529297 80.28072266 -117.49308594 79.62394531 -117.77929688 78.94726562 C-124.57847805 62.317943 -122.33343185 41.03377132 -115.6796875 24.7734375 C-106.81673467 5.64302018 -90.93590608 -7.4229491 -71.5859375 -14.9375 C-46.7576217 -23.81084998 -19.69584357 -16.36270081 0 0 Z " fill="#5C6ABF" transform="translate(299,194)"/>
<path d="M0 0 C0 0.66 0 1.32 0 2 C0.55171875 2.11214844 1.1034375 2.22429687 1.671875 2.33984375 C4.40065211 3.11360773 6.72772943 4.26817694 9.25 5.5625 C10.14203125 6.01753906 11.0340625 6.47257812 11.953125 6.94140625 C12.62859375 7.29074219 13.3040625 7.64007813 14 8 C14 8.66 14 9.32 14 10 C15.00804687 10.2475 16.01609375 10.495 17.0546875 10.75 C21.13413889 11.91614413 24.51487649 13.81012288 28.125 16 C31.98574167 18.31142018 35.75263165 20.46133071 40 22 C40 22.66 40 23.32 40 24 C40.825 24.226875 41.65 24.45375 42.5 24.6875 C46.05232526 26.01962197 48.81455413 27.70683081 51.97265625 29.76171875 C54.86818282 31.53027737 57.85230947 32.74092379 61 34 C61.66 34.33 62.32 34.66 63 35 C58.08744177 48.61684829 45.40858044 58.5325814 33 65 C13.7559625 73.33486273 -6.60497506 74.88857102 -26.3125 67.4375 C-41.58241496 61.29834735 -54.70584277 50.29261023 -63 36 C-63.6875 33.70703125 -63.6875 33.70703125 -64 32 C-63.32839844 31.64550781 -62.65679687 31.29101562 -61.96484375 30.92578125 C-48.44563075 23.72134903 -35.15283943 16.10167739 -21.85888672 8.49169922 C-20.20326095 7.54476147 -18.54505151 6.60234531 -16.88671875 5.66015625 C-15.02138495 4.5874 -13.16859475 3.4923924 -11.33203125 2.37109375 C-10.54183594 1.89800781 -9.75164062 1.42492187 -8.9375 0.9375 C-8.28652344 0.53402344 -7.63554687 0.13054687 -6.96484375 -0.28515625 C-4.35601194 -1.23429387 -2.63191776 -0.72525983 0 0 Z " fill="#283592" transform="translate(250,250)"/>
<path d="M0 0 C0.66 0 1.32 0 2 0 C2.92399488 14.25568717 3.13366966 28.44784758 3.09765625 42.73046875 C3.09578562 44.9453376 3.09436477 47.16020688 3.09336853 49.37507629 C3.0895941 55.13700552 3.07980869 60.89890858 3.06866455 66.66082764 C3.05833981 72.56750128 3.05384748 78.47417926 3.04882812 84.38085938 C3.0381806 95.92058427 3.02116709 107.46028994 3 119 C2.67 119 2.34 119 2 119 C1.97494385 118.29915283 1.9498877 117.59830566 1.92407227 116.8762207 C1.80773455 113.68814512 1.68517956 110.50033758 1.5625 107.3125 C1.52318359 106.20970703 1.48386719 105.10691406 1.44335938 103.97070312 C1.40146484 102.90400391 1.35957031 101.83730469 1.31640625 100.73828125 C1.27974854 99.75899658 1.24309082 98.77971191 1.20532227 97.77075195 C1.08052541 95.0879633 1.08052541 95.0879633 0.4942627 92.87866211 C-0.17855934 88.96004288 -0.13084966 85.13922313 -0.11352539 81.1706543 C-0.11367142 80.29210281 -0.11381744 79.41355133 -0.1139679 78.50837708 C-0.11327299 75.61363224 -0.10550036 72.7189523 -0.09765625 69.82421875 C-0.09579057 67.81354304 -0.09436737 65.80286688 -0.09336853 63.79219055 C-0.08955517 58.50681294 -0.07973495 53.22146292 -0.06866455 47.93609619 C-0.05842505 42.54008355 -0.05386547 37.14406644 -0.04882812 31.74804688 C-0.03811163 21.16535248 -0.02104937 10.58267854 0 0 Z " fill="#6168AC" transform="translate(447,229)"/>
<path d="M0 0 C0.82371094 0.65935547 0.82371094 0.65935547 1.6640625 1.33203125 C4.14791049 3.10561502 6.62228264 4.37147485 9.375 5.6875 C14.84546876 8.36554006 20.1176319 11.28986364 25.36669922 14.37182617 C27.90100159 15.85010855 30.20535188 17.06845063 33 18 C33 18.66 33 19.32 33 20 C33.99 19.67 34.98 19.34 36 19 C36.495 20.485 36.495 20.485 37 22 C39.00016466 23.20882096 39.00016466 23.20882096 41 24 C39.41796875 24.72265625 39.41796875 24.72265625 37 25 C34.62898331 23.91443723 32.53133667 22.7821037 30.3125 21.4375 C28.90301536 20.61343353 27.49280526 19.79060716 26.08203125 18.96875 C24.89794678 18.27265625 24.89794678 18.27265625 23.68994141 17.5625 C18.33303638 14.45084705 12.91005052 11.45544789 7.5 8.4375 C5.30189372 7.20737001 3.10396224 5.97692759 0.90625 4.74609375 C-0.72915456 3.83070754 -2.36456634 2.91533422 -4 2 C-2.68 1.34 -1.36 0.68 0 0 Z " fill="#42478A" transform="translate(96,382)"/>
<path d="M0 0 C0.33 0 0.66 0 1 0 C1 16.5 1 33 1 50 C-1 49 -1 49 -1.61450195 47.41845703 C-2.1515738 44.04908798 -2.16266209 40.70743368 -2.16796875 37.3046875 C-2.17129715 36.55720245 -2.17462555 35.80971741 -2.17805481 35.0395813 C-2.18311033 33.45770887 -2.18546356 31.87582581 -2.18530273 30.29394531 C-2.18747356 27.90411141 -2.20559999 25.51475135 -2.22460938 23.125 C-2.25285875 15.20710437 -2.12752035 7.69764587 0 0 Z " fill="#7A82B8" transform="translate(105,222)"/>
<path d="M0 0 C1.23298828 -0.00128906 2.46597656 -0.00257812 3.73632812 -0.00390625 C5.03634766 -0.00003906 6.33636719 0.00382812 7.67578125 0.0078125 C8.95646484 0.00394531 10.23714844 0.00007813 11.55664062 -0.00390625 C13.41579102 -0.00197266 13.41579102 -0.00197266 15.3125 0 C17.01539185 0.00169189 17.01539185 0.00169189 18.75268555 0.00341797 C21.91241287 0.12977845 24.88488199 0.54199615 27.98828125 1.1328125 C27.98828125 1.4628125 27.98828125 1.7928125 27.98828125 2.1328125 C26.7053418 2.1625415 26.7053418 2.1625415 25.39648438 2.19287109 C21.42683688 2.28960052 17.45751183 2.39546416 13.48828125 2.5078125 C12.77909546 2.52760162 12.06990967 2.54739075 11.3392334 2.56777954 C2.02751467 2.83845055 -7.11243898 3.35595307 -16.30859375 4.92578125 C-19.01171875 5.1328125 -19.01171875 5.1328125 -22.01171875 3.1328125 C-20.40490234 2.93365234 -20.40490234 2.93365234 -18.765625 2.73046875 C-17.36846106 2.5523069 -15.97132716 2.37390931 -14.57421875 2.1953125 C-13.86716797 2.10830078 -13.16011719 2.02128906 -12.43164062 1.93164062 C-7.78900542 1.33187435 -4.75507405 0.00474795 0 0 Z " fill="#636BAE" transform="translate(239.01171875,100.8671875)"/>
<path d="M0 0 C1.53486493 2.88056232 2.59442876 5.68779809 3.515625 8.81640625 C7.56745271 22.48425149 7.56745271 22.48425149 13.93359375 35.171875 C15 37 15 37 15 39 C14.01 38.67 13.02 38.34 12 38 C10.85396865 35.66711176 9.86737454 33.4162469 8.9375 31 C7.43627853 26.216312 7.43627853 26.216312 4 23 C3.1484375 20.1640625 3.1484375 20.1640625 2.375 16.625 C2.11460938 15.46226562 1.85421875 14.29953125 1.5859375 13.1015625 C1 10 1 10 1 7 C0.34 7 -0.32 7 -1 7 C-1.04254356 5.00045254 -1.04080783 2.99958364 -1 1 C-0.67 0.67 -0.34 0.34 0 0 Z " fill="#6C74AE" transform="translate(107,280)"/>
<path d="M0 0 C5.68621438 0.72900184 11.88327381 2.08047121 16.8203125 5.12109375 C20.05450729 6.42520455 22.80722145 5.94377579 26.25 5.625 C28.14492188 5.45871094 28.14492188 5.45871094 30.078125 5.2890625 C31.52445312 5.14597656 31.52445312 5.14597656 33 5 C27.96911199 8.88513712 24.41627359 9.42073925 18 9 C11.42885417 7.47434091 5.7537839 4.44138848 0 1 C0 0.67 0 0.34 0 0 Z " fill="#4B508F" transform="translate(229,460)"/>
<path d="M0 0 C0.33 0 0.66 0 1 0 C0.83553101 6.59371137 -0.19359741 11.29443103 -5 16 C-7.89390988 18.19103394 -10.88140177 20.14514746 -14 22 C-14.66 21.67 -15.32 21.34 -16 21 C-15.375 19.0625 -15.375 19.0625 -14 17 C-10.875 16.25 -10.875 16.25 -8 16 C-7.67 14.35 -7.34 12.7 -7 11 C-6.34 11 -5.68 11 -5 11 C-5 9.02 -5 7.04 -5 5 C-3.35 4.67 -1.7 4.34 0 4 C0 2.68 0 1.36 0 0 Z " fill="#515799" transform="translate(448,348)"/>
<path d="M0 0 C4.74726495 3.13044283 9.44266008 6.30874281 14.0625 9.625 C18.21887841 12.55853156 22.38691876 14.86431424 27 17 C23.98968256 17.93423645 23.13349732 18.04449911 20 17 C19.34 16.34 18.68 15.68 18 15 C17.34 14.855625 16.68 14.71125 16 14.5625 C14 14 14 14 12 11 C8.93443402 10.26656572 8.93443402 10.26656572 6 10 C6.33 9.01 6.66 8.02 7 7 C5.35 6.67 3.7 6.34 2 6 C2 5.01 2 4.02 2 3 C1.34 3 0.68 3 0 3 C0 2.01 0 1.02 0 0 Z " fill="#333D82" transform="translate(158,362)"/>
<path d="M0 0 C0.33 0 0.66 0 1 0 C1.84083913 6.55987989 2.15371862 12.95243204 2.125 19.5625 C2.12886719 20.45646484 2.13273437 21.35042969 2.13671875 22.27148438 C2.1289147 27.60555372 1.77596963 32.72217484 1 38 C0.67 38 0.34 38 0 38 C-0.85582352 30.14747806 -1.15439012 22.39614539 -1.125 14.5 C-1.12886719 13.43007812 -1.13273437 12.36015625 -1.13671875 11.2578125 C-1.13542969 10.23429688 -1.13414062 9.21078125 -1.1328125 8.15625 C-1.13112061 6.77663086 -1.13112061 6.77663086 -1.12939453 5.36914062 C-1 3 -1 3 0 0 Z " fill="#4C559C" transform="translate(448,144)"/>
<path d="M0 0 C1.32 0 2.64 0 4 0 C4 0.66 4 1.32 4 2 C4.886875 2.12375 5.77375 2.2475 6.6875 2.375 C10 3 10 3 12.625 4.0625 C15.19454727 5.24477769 15.19454727 5.24477769 19 5 C19.268125 5.61875 19.53625 6.2375 19.8125 6.875 C20.95556848 9.2995233 20.95556848 9.2995233 24 11 C23.67 11.66 23.34 12.32 23 13 C19.37153517 11.62458914 16.01964296 10.00226673 12.625 8.125 C11.67238281 7.5990625 10.71976563 7.073125 9.73828125 6.53125 C6.47936256 4.70885895 3.23300805 2.8679602 0 1 C0 0.67 0 0.34 0 0 Z " fill="#4C5091" transform="translate(206,447)"/>
<path d="M0 0 C2.31 0 4.62 0 7 0 C5.74377016 4.06211548 3.18065228 5.34280276 -0.36132812 7.24414062 C-1.04646484 7.59669922 -1.73160156 7.94925781 -2.4375 8.3125 C-3.11876953 8.68439453 -3.80003906 9.05628906 -4.50195312 9.43945312 C-6.29124573 10.38054042 -8.14370974 11.19912561 -10 12 C-10.99 11.67 -11.98 11.34 -13 11 C-12.38125 10.95875 -11.7625 10.9175 -11.125 10.875 C-10.42375 10.58625 -9.7225 10.2975 -9 10 C-7.6954344 7.00384054 -7.6954344 7.00384054 -7 4 C-3.535 3.505 -3.535 3.505 0 3 C0 2.01 0 1.02 0 0 Z " fill="#525895" transform="translate(410,377)"/>
<path d="M0 0 C0.66 0.33 1.32 0.66 2 1 C-2.06153846 6.78461538 -2.06153846 6.78461538 -6.8125 7.875 C-7.864375 7.91625 -8.91625 7.9575 -10 8 C-10.33 8.99 -10.66 9.98 -11 11 C-12.65 11.33 -14.3 11.66 -16 12 C-15.70678711 10.13598633 -15.70678711 10.13598633 -15 8 C-12.52398968 6.3717382 -10.18992901 5.01455787 -7.5625 3.6875 C-6.86833984 3.31560547 -6.17417969 2.94371094 -5.45898438 2.56054688 C-3.67566339 1.63349618 -1.84017473 0.80834009 0 0 Z " fill="#7B81B3" transform="translate(200,53)"/>
<path d="M0 0 C5.36552315 4.73428513 8.81572507 10.63145014 12 17 C11.01 17 10.02 17 9 17 C9 16.34 9 15.68 9 15 C8.34 15 7.68 15 7 15 C7 14.01 7 13.02 7 12 C5.35 12.66 3.7 13.32 2 14 C2 12.68 2 11.36 2 10 C1.68493373 6.85778033 1.68493373 6.85778033 1 4 C0.34 3.67 -0.32 3.34 -1 3 C-0.67 2.01 -0.34 1.02 0 0 Z " fill="#323D85" transform="translate(121,319)"/>
<path d="M0 0 C0.66 0.33 1.32 0.66 2 1 C0.49049406 4.57087427 -1.60606226 6.81385442 -4.375 9.5 C-5.14585937 10.2528125 -5.91671875 11.005625 -6.7109375 11.78125 C-7.84402344 12.87953125 -7.84402344 12.87953125 -9 14 C-10.33561058 15.33105219 -11.66970732 16.66363293 -13 18 C-13.66 17.67 -14.32 17.34 -15 17 C-10.43071457 10.83146467 -5.55661824 5.29682829 0 0 Z " fill="#6670AE" transform="translate(204,192)"/>
<path d="M0 0 C0.66 1.65 1.32 3.3 2 5 C-0.64 4.67 -3.28 4.34 -6 4 C-6.33 4.99 -6.66 5.98 -7 7 C-7.99 7.33 -8.98 7.66 -10 8 C-11.69882448 10.49759982 -11.69882448 10.49759982 -13 13 C-13.33 12.34 -13.66 11.68 -14 11 C-13.67 10.34 -13.34 9.68 -13 9 C-13.99 8.67 -14.98 8.34 -16 8 C-13.71125827 6.66141476 -11.41930344 5.32898986 -9.125 4 C-8.47402344 3.6184375 -7.82304687 3.236875 -7.15234375 2.84375 C-2.2265625 0 -2.2265625 0 0 0 Z M-15 13 C-14.67 13.66 -14.34 14.32 -14 15 C-14.66 14.67 -15.32 14.34 -16 14 C-15.67 13.67 -15.34 13.34 -15 13 Z " fill="#7278B7" transform="translate(227,39)"/>
<path d="M0 0 C1 3 1 3 0.3190918 4.85351562 C-0.05046631 5.53091797 -0.42002441 6.20832031 -0.80078125 6.90625 C-1.20103516 7.65003906 -1.60128906 8.39382812 -2.01367188 9.16015625 C-2.44228516 9.93230469 -2.87089844 10.70445312 -3.3125 11.5 C-3.72951172 12.27214844 -4.14652344 13.04429687 -4.57617188 13.83984375 C-6.28599891 16.98679813 -8.0114228 20.01713419 -10 23 C-10 20.03 -10 17.06 -10 14 C-9.34 14 -8.68 14 -8 14 C-7.71382813 13.42765625 -7.42765625 12.8553125 -7.1328125 12.265625 C-5.421875 8.84375 -3.7109375 5.421875 -2 2 C-1.34 2 -0.68 2 0 2 C0 1.34 0 0.68 0 0 Z " fill="#646CAC" transform="translate(125,170)"/>
<path d="M0 0 C0.51175781 0.23332031 1.02351563 0.46664063 1.55078125 0.70703125 C0.93203125 0.76890625 0.31328125 0.83078125 -0.32421875 0.89453125 C-1.02546875 1.16265625 -1.72671875 1.43078125 -2.44921875 1.70703125 C-2.69671875 2.51140625 -2.94421875 3.31578125 -3.19921875 4.14453125 C-4.44921875 6.70703125 -4.44921875 6.70703125 -6.171875 7.48046875 C-9.94755688 8.45438295 -13.53758739 8.95150821 -17.44921875 8.70703125 C-15.86185815 5.53231004 -12.69595598 4.55376178 -9.63671875 3.01953125 C-9.00701172 2.68630859 -8.37730469 2.35308594 -7.72851562 2.00976562 C-3.02877961 -0.36229421 -3.02877961 -0.36229421 0 0 Z " fill="#7983BD" transform="translate(244.44921875,30.29296875)"/>
<path d="M0 0 C0.53109375 0.42925781 1.0621875 0.85851562 1.609375 1.30078125 C4.36923485 3.26244634 7.20933081 4.70021616 10.25 6.1875 C11.32765625 6.71730469 12.4053125 7.24710937 13.515625 7.79296875 C14.33546875 8.19128906 15.1553125 8.58960938 16 9 C16 9.99 16 10.98 16 12 C11.08558588 10.56347895 6.99761642 8.45840385 2.625 5.875 C1.98433594 5.50246094 1.34367187 5.12992187 0.68359375 4.74609375 C-0.88048477 3.83565998 -2.44065534 2.91851809 -4 2 C-2.68 1.34 -1.36 0.68 0 0 Z " fill="#60639A" transform="translate(96,382)"/>
<path d="M0 0 C0.66 0.33 1.32 0.66 2 1 C1.67 1.66 1.34 2.32 1 3 C0.34 3 -0.32 3 -1 3 C-1.268125 3.5775 -1.53625 4.155 -1.8125 4.75 C-3.01719859 7.0325868 -4.40798115 8.9737942 -6 11 C-8 10 -8 10 -9 9 C-10.66617115 8.95936168 -12.33388095 8.957279 -14 9 C-11.50175511 6.18841591 -8.721524 4.55162169 -5.4375 2.75 C-4.46683594 2.20859375 -3.49617188 1.6671875 -2.49609375 1.109375 C-1.67238281 0.74328125 -0.84867188 0.3771875 0 0 Z " fill="#7379B3" transform="translate(89,115)"/>
<path d="M0 0 C18.8 -0.6 18.8 -0.6 26 3 C26 3.66 26 4.32 26 5 C26.66 5.33 27.32 5.66 28 6 C26.95585937 5.7834375 26.95585937 5.7834375 25.890625 5.5625 C21.79331892 4.76518638 17.67072114 4.14372232 13.546875 3.5 C11 3 11 3 10 2 C8.31816052 1.76712992 6.6287584 1.58735834 4.9375 1.4375 C4.01839844 1.35371094 3.09929687 1.26992187 2.15234375 1.18359375 C1.08693359 1.09271484 1.08693359 1.09271484 0 1 C0 0.67 0 0.34 0 0 Z " fill="#6871AF" transform="translate(246,176)"/>
<path d="M0 0 C3.29680965 0.65784963 5.84117922 1.89420573 8.75 3.5625 C9.94882812 4.24505859 9.94882812 4.24505859 11.171875 4.94140625 C11.77515625 5.29074219 12.3784375 5.64007813 13 6 C12.67 6.66 12.34 7.32 12 8 C10.56163249 7.88541307 9.12429034 7.75790884 7.6875 7.625 C6.88699219 7.55539063 6.08648437 7.48578125 5.26171875 7.4140625 C3 7 3 7 0 5 C0.33 4.34 0.66 3.68 1 3 C0.67 2.67 0.34 2.34 0 2 C0 1.34 0 0.68 0 0 Z " fill="#7077B7" transform="translate(328,70)"/>
<path d="M0 0 C-1.21095652 3.63286955 -2.79359383 4.43006752 -6.078125 6.21484375 C-8.77455384 7.31643358 -11.13141789 7.27986167 -14 7 C-13 4 -13 4 -11.328125 2.83203125 C-4.42748092 -0.55343511 -4.42748092 -0.55343511 0 0 Z " fill="#394288" transform="translate(303,441)"/>
<path d="M0 0 C0.66 0 1.32 0 2 0 C2.33951619 1.56116819 2.67132544 3.12401338 3 4.6875 C3.185625 5.55761719 3.37125 6.42773438 3.5625 7.32421875 C3.98972047 9.93712964 4.07616201 12.35813038 4 15 C4.66 15 5.32 15 6 15 C6.33 17.64 6.66 20.28 7 23 C1.58205778 16.3556468 -0.63891598 8.46563667 0 0 Z " fill="#646DAB" transform="translate(179,259)"/>
<path d="M0 0 C1.32 0.33 2.64 0.66 4 1 C1.20942528 2.81418551 -1.58264289 4.62605934 -4.375 6.4375 C-5.56609375 7.2119043 -5.56609375 7.2119043 -6.78125 8.00195312 C-7.92207031 8.74155273 -7.92207031 8.74155273 -9.0859375 9.49609375 C-9.7876709 9.95169678 -10.4894043 10.4072998 -11.21240234 10.87670898 C-13 12 -13 12 -15 13 C-15 10 -15 10 -13.3125 8 C-9.04131492 4.30600209 -5.64089164 2.65591763 0 2 C0 1.34 0 0.68 0 0 Z " fill="#6670AD" transform="translate(178,119)"/>
<path d="M0 0 C3.14952839 0.6998952 6.0652503 1.65160149 9 3 C9.33 3.66 9.66 4.32 10 5 C11.1446875 5.6496875 11.1446875 5.6496875 12.3125 6.3125 C15.27899385 8.17518219 16.94844894 10.18861522 19 13 C14.8024494 13 12.6442792 10.69386003 9.5 8.1875 C8.91863281 7.73568359 8.33726562 7.28386719 7.73828125 6.81835938 C5.00959506 4.67974377 2.36426145 2.54158106 0 0 Z " fill="#6D76B2" transform="translate(330,126)"/>
<path d="M0 0 C8.21730585 1.02716323 14.70007224 5.97346189 21 11 C20.67 11.66 20.34 12.32 20 13 C19.45730469 12.57847656 18.91460937 12.15695313 18.35546875 11.72265625 C17.64003906 11.17480469 16.92460937 10.62695312 16.1875 10.0625 C15.12595703 9.24458984 15.12595703 9.24458984 14.04296875 8.41015625 C11.95874948 6.83143752 11.95874948 6.83143752 9 6 C9 5.34 9 4.68 9 4 C4.545 3.01 4.545 3.01 0 2 C0 1.34 0 0.68 0 0 Z " fill="#626CA6" transform="translate(275,181)"/>
<path d="M0 0 C0.99 0.33 1.98 0.66 3 1 C3 1.99 3 2.98 3 4 C3.66 4 4.32 4 5 4 C5 4.66 5 5.32 5 6 C6.32 6.66 7.64 7.32 9 8 C9 8.66 9 9.32 9 10 C11.475 10.99 11.475 10.99 14 12 C14 12.66 14 13.32 14 14 C14.66 14.33 15.32 14.66 16 15 C10.77817006 14.12580972 7.74466006 10.4914351 4 7 C3.175 6.2575 2.35 5.515 1.5 4.75 C0 3 0 3 0 0 Z " fill="#333B7E" transform="translate(194,293)"/>
<path d="M0 0 C0.66 0 1.32 0 2 0 C0.86728288 3.39815137 -0.1909314 4.28644916 -2.875 6.5625 C-3.92300781 7.46162109 -3.92300781 7.46162109 -4.9921875 8.37890625 C-7 10 -7 10 -10 12 C-10 9.33579484 -9.90837763 7.47739354 -9 5 C-8.01 4.67 -7.02 4.34 -6 4 C-5.34 4.33 -4.68 4.66 -4 5 C-4 4.34 -4 3.68 -4 3 C-2.68 2.67 -1.36 2.34 0 2 C0 1.34 0 0.68 0 0 Z " fill="#6D76B4" transform="translate(158,133)"/>
<path d="M0 0 C0 0.33 0 0.66 0 1 C-2.89444095 1.6732656 -5.79030013 2.33880404 -8.6875 3 C-9.50412109 3.19078125 -10.32074219 3.3815625 -11.16210938 3.578125 C-15.17239326 4.48733916 -18.85717252 5.27000098 -23 5 C-15.73028503 0.15352336 -8.57238313 -0.43262494 0 0 Z " fill="#6E77B1" transform="translate(245,177)"/>
<path d="M0 0 C0.66 0.33 1.32 0.66 2 1 C1.875 2.8125 1.875 2.8125 1 5 C-3.38397423 7.92264949 -6.80136436 8.31191814 -12 8 C-10.54403132 5.08806263 -8.39161602 4.36133985 -5.5625 2.8125 C-4.57378906 2.26207031 -3.58507812 1.71164063 -2.56640625 1.14453125 C-1.71949219 0.76683594 -0.87257812 0.38914062 0 0 Z " fill="#797FB8" transform="translate(164,73)"/>
<path d="M0 0 C4.6889493 0.55619669 8.19924267 1.88182673 12.375 4.0625 C13.43460938 4.61035156 14.49421875 5.15820312 15.5859375 5.72265625 C16.38257813 6.14417969 17.17921875 6.56570313 18 7 C18 7.33 18 7.66 18 8 C11.02013687 7.68978386 5.92708478 4.5048042 0 1 C0 0.67 0 0.34 0 0 Z " fill="#696D9D" transform="translate(229,460)"/>
<path d="M0 0 C0 4.01740017 -1.67868088 6.82884202 -4 10 C-6.1875 11.25 -6.1875 11.25 -8 12 C-8.33 12.99 -8.66 13.98 -9 15 C-9.99 14.67 -10.98 14.34 -12 14 C-8.04 9.38 -4.08 4.76 0 0 Z " fill="#E3E9F6" transform="translate(147,145)"/>
<path d="M0 0 C0.99 0.99 1.98 1.98 3 3 C2.67 3.99 2.34 4.98 2 6 C-0.5625 7.1875 -0.5625 7.1875 -3 8 C-3.66 7.34 -4.32 6.68 -5 6 C-3.63016497 2.83884224 -3.0109362 2.0072908 0 0 Z " fill="#EDF0F7" transform="translate(373,170)"/>
<path d="M0 0 C0.66 0.268125 1.32 0.53625 2 0.8125 C-1.7559214 4.24181954 -6.23466745 5.37679083 -11 6.8125 C-11 6.1525 -11 5.4925 -11 4.8125 C-7.62365257 1.9723467 -4.47602466 -0.27975154 0 0 Z " fill="#E8EFF9" transform="translate(314,378.1875)"/>
<path d="M0 0 C3 1 3 1 6 3 C8.11280345 3.63292383 8.11280345 3.63292383 10 4 C9.67 5.32 9.34 6.64 9 8 C5.00499382 6.6302836 2.19990508 4.74277578 -1 2 C-0.67 1.34 -0.34 0.68 0 0 Z " fill="#42478E" transform="translate(60,362)"/>
<path d="M0 0 C0.66 0.33 1.32 0.66 2 1 C1.01 1.33 0.02 1.66 -1 2 C-0.01 2.99 0.98 3.98 2 5 C1.34 5 0.68 5 0 5 C0 5.99 0 6.98 0 8 C0.66 8 1.32 8 2 8 C2.33 8.99 2.66 9.98 3 11 C2.01 11 1.02 11 0 11 C-4 4.25 -4 4.25 -4 2 C-2.125 0.9375 -2.125 0.9375 0 0 Z " fill="#36408A" transform="translate(190,280)"/>
<path d="M0 0 C0.66 0.66 1.32 1.32 2 2 C0.35 7.94 -1.3 13.88 -3 20 C-4.00668882 15.97324473 -3.88294162 14.0025417 -3.1875 10 C-3.01605469 8.96875 -2.84460938 7.9375 -2.66796875 6.875 C-2.06537726 4.28138985 -1.31059863 2.30046004 0 0 Z " fill="#626CA6" transform="translate(110,201)"/>
<path d="M0 0 C4.29 0.33 8.58 0.66 13 1 C13 1.99 13 2.98 13 4 C7.66404866 4.27131956 4.38616179 4.4266889 0 1 C0 0.67 0 0.34 0 0 Z " fill="#666FBA" transform="translate(322,121)"/>
<path d="M0 0 C0.66 0.33 1.32 0.66 2 1 C-1.85623679 6.66384778 -1.85623679 6.66384778 -5.11328125 7.62109375 C-7.06660622 7.84661084 -9.03482858 7.93338402 -11 8 C-8.83385197 5.69125289 -6.60793392 3.94709819 -3.9375 2.25 C-2.89916016 1.57710938 -2.89916016 1.57710938 -1.83984375 0.890625 C-1.23269531 0.59671875 -0.62554687 0.3028125 0 0 Z " fill="#E3E9F6" transform="translate(182,119)"/>
<path d="M0 0 C5.31027254 1.46032495 9.46330032 3.98320986 14 7 C11 8 11 8 9.0625 7.29296875 C8.381875 6.92816406 7.70125 6.56335938 7 6.1875 C6.319375 5.83042969 5.63875 5.47335938 4.9375 5.10546875 C3.24874367 4.14192431 1.61775824 3.07850549 0 2 C0 1.34 0 0.68 0 0 Z " fill="#8084B8" transform="translate(345,79)"/>
<path d="M0 0 C-3.46747828 2.77398263 -7.06402511 4.95912413 -11 7 C-11.66 6.67 -12.32 6.34 -13 6 C-8.69305903 1.54454382 -6.32208571 -0.28098159 0 0 Z " fill="#636596" transform="translate(340,422)"/>
<path d="M0 0 C3.59634744 3.49359465 6.83451967 7.11098131 10 11 C8.35 11 6.7 11 5 11 C3.15172566 7.3874638 1.44950455 3.7910119 0 0 Z " fill="#6C76AE" transform="translate(304,200)"/>
<path d="M0 0 C1.32 0.66 2.64 1.32 4 2 C2.3811004 3.03048037 0.75467511 4.04914678 -0.875 5.0625 C-1.77992188 5.63097656 -2.68484375 6.19945312 -3.6171875 6.78515625 C-4.40351563 7.18605469 -5.18984375 7.58695312 -6 8 C-6.66 7.67 -7.32 7.34 -8 7 C-7.67 6.01 -7.34 5.02 -7 4 C-5.01276732 3.29618843 -3.01222047 2.6288189 -1 2 C-0.67 1.34 -0.34 0.68 0 0 Z " fill="#64669C" transform="translate(428,369)"/>
<path d="M0 0 C0.33 1.32 0.66 2.64 1 4 C0.34 4 -0.32 4 -1 4 C-1.33 4.66 -1.66 5.32 -2 6 C-4.8986087 7.75986957 -7.67277559 8.4454626 -11 9 C-9.948125 8.1646875 -9.948125 8.1646875 -8.875 7.3125 C-5.88655739 4.90875268 -2.94059762 2.46189568 0 0 Z " fill="#353C81" transform="translate(345,360)"/>
<path d="M0 0 C-1.23263349 3.69790046 -2.20052451 3.9354846 -5.5625 5.6875 C-6.80193359 6.34298828 -6.80193359 6.34298828 -8.06640625 7.01171875 C-8.70449219 7.33785156 -9.34257812 7.66398437 -10 8 C-10 7.01 -10 6.02 -10 5 C-8.57421875 3.61328125 -8.57421875 3.61328125 -6.6875 2.3125 C-6.07261719 1.87550781 -5.45773437 1.43851562 -4.82421875 0.98828125 C-3 0 -3 0 0 0 Z " fill="#393F82" transform="translate(297,304)"/>
<path d="M0 0 C0.33 0.66 0.66 1.32 1 2 C-0.04846541 3.46845587 -1.11443761 4.92442099 -2.1875 6.375 C-2.77917969 7.18710937 -3.37085938 7.99921875 -3.98046875 8.8359375 C-6.19553039 11.20952387 -7.93353141 12.03610141 -11 13 C-10.62488281 12.56429688 -10.24976563 12.12859375 -9.86328125 11.6796875 C-6.54140223 7.81392401 -3.25357073 3.92342352 0 0 Z " fill="#D8DDF0" transform="translate(308,293)"/>
<path d="M0 0 C1.19799449 4.14659373 0.8896192 7.99369047 0.5625 12.25 C0.48418945 13.36761719 0.48418945 13.36761719 0.40429688 14.5078125 C0.2751783 16.33894861 0.13834886 18.16953813 0 20 C-0.33 20 -0.66 20 -1 20 C-1.22162857 17.22964291 -1.42779249 14.45961005 -1.625 11.6875 C-1.68945312 10.90181641 -1.75390625 10.11613281 -1.8203125 9.30664062 C-1.871875 8.54931641 -1.9234375 7.79199219 -1.9765625 7.01171875 C-2.02893066 6.31522217 -2.08129883 5.61872559 -2.13525391 4.90112305 C-2 3 -2 3 0 0 Z " fill="#5B66A7" transform="translate(54,141)"/>
<path d="M0 0 C0.66 0.33 1.32 0.66 2 1 C-2.625 6.875 -2.625 6.875 -6 8 C-6.33 7.01 -6.66 6.02 -7 5 C-4.88437775 2.67281553 -2.94982021 1.14186589 0 0 Z " fill="#7076B0" transform="translate(200,53)"/>
<path d="M0 0 C3.87302138 1.14430177 7.00263439 2.23320098 10 5 C10 5.66 10 6.32 10 7 C5.49197399 5.74194623 2.5087188 4.09592835 -1 1 C-0.67 0.67 -0.34 0.34 0 0 Z " fill="#595C8C" transform="translate(82,376)"/>
<path d="M0 0 C1.40167793 2.80335585 0.96536981 4.0349356 0 7 C-2.4375 9.8125 -2.4375 9.8125 -5 12 C-5.66 12 -6.32 12 -7 12 C-5.61735163 9.13132769 -4.07851447 6.43975968 -2.375 3.75 C-1.92898438 3.04359375 -1.48296875 2.3371875 -1.0234375 1.609375 C-0.68570312 1.07828125 -0.34796875 0.5471875 0 0 Z " fill="#3F4888" transform="translate(376,323)"/>
<path d="M0 0 C2.25 0.4375 2.25 0.4375 5 2 C6.64993735 4.88343685 7.85322492 7.88640956 9 11 C8.01 11.495 8.01 11.495 7 12 C5.83061933 10.18924982 4.66456267 8.37635257 3.5 6.5625 C2.8503125 5.55316406 2.200625 4.54382813 1.53125 3.50390625 C0 1 0 1 0 0 Z " fill="#646EAB" transform="translate(367,160)"/>
<path d="M0 0 C0.33 0 0.66 0 1 0 C2.01593448 6.88577812 1.83854735 13.09811029 1 20 C0.67 20 0.34 20 0 20 C-0.1946838 17.22949974 -0.38102792 14.45886998 -0.5625 11.6875 C-0.61857422 10.90181641 -0.67464844 10.11613281 -0.73242188 9.30664062 C-0.78076172 8.54931641 -0.82910156 7.79199219 -0.87890625 7.01171875 C-0.9260376 6.31522217 -0.97316895 5.61872559 -1.02172852 4.90112305 C-1 3 -1 3 0 0 Z " fill="#696EA5" transform="translate(448,144)"/>
<path d="M0 0 C-3.88309282 3.64775386 -6.71201818 4.58525633 -12 5 C-4.28571429 -1.42857143 -4.28571429 -1.42857143 0 0 Z " fill="#797FB2" transform="translate(135,92)"/>
<path d="M0 0 C2 3 2 3 2.5 5.125 C2.665 5.74375 2.83 6.3625 3 7 C3.66 7.33 4.32 7.66 5 8 C6.1875 9.9375 6.1875 9.9375 7 12 C6.67 12.66 6.34 13.32 6 14 C2.04319812 9.38373114 0 6.15374666 0 0 Z " fill="#757AA4" transform="translate(52,350)"/>
<path d="M0 0 C4.31392226 0.4793247 6.16569547 1.7457985 9 5 C5.7 4.34 2.4 3.68 -1 3 C-0.67 2.01 -0.34 1.02 0 0 Z " fill="#7B7FB7" transform="translate(434,130)"/>
<path d="M0 0 C0.53625 0.226875 1.0725 0.45375 1.625 0.6875 C0.625 2.6875 0.625 2.6875 -1.625 3.8125 C-4.39113295 4.69263321 -6.49548351 4.8520438 -9.375 4.6875 C-7.60317726 1.14385451 -3.87334298 -0.50965039 0 0 Z " fill="#7075B5" transform="translate(236.375,34.3125)"/>
<path d="M0 0 C2.31 0 4.62 0 7 0 C6.4375 1.9375 6.4375 1.9375 5 4 C1.375 4.75 1.375 4.75 -2 5 C-1.67 4.360625 -1.34 3.72125 -1 3.0625 C0.07271225 1.23205433 0.07271225 1.23205433 0 0 Z " fill="#484C8B" transform="translate(410,377)"/>
<path d="M0 0 C2.9375 0.375 2.9375 0.375 6 1 C6.33 1.66 6.66 2.32 7 3 C9.52733235 3.65555119 9.52733235 3.65555119 12 4 C12 4.99 12 5.98 12 7 C7.39104317 5.68315519 3.85859765 3.84801255 0 1 C0 0.67 0 0.34 0 0 Z " fill="#7174A3" transform="translate(69,370)"/>
<path d="M0 0 C6.75 2.75 6.75 2.75 9 5 C6.36 5 3.72 5 1 5 C0.67 3.35 0.34 1.7 0 0 Z " fill="#757EB8" transform="translate(406,113)"/>
<path d="M0 0 C5.75 1.75 5.75 1.75 8 4 C4.52674819 5.1577506 1.63932552 5.06866652 -2 5 C-1.34 3.35 -0.68 1.7 0 0 Z " fill="#727DBA" transform="translate(260,32)"/>
<path d="M0 0 C0.80566406 0.17144531 1.61132812 0.34289062 2.44140625 0.51953125 C4.4375 1.1875 4.4375 1.1875 5.4375 3.1875 C3.99913249 3.07291307 2.56179034 2.94540884 1.125 2.8125 C0.32449219 2.74289062 -0.47601563 2.67328125 -1.30078125 2.6015625 C-3.5625 2.1875 -3.5625 2.1875 -6.5625 0.1875 C-3.9640401 -1.11172995 -2.80288549 -0.62536289 0 0 Z " fill="#434D8A" transform="translate(234.5625,317.8125)"/>
<path d="M0 0 C0.33 0 0.66 0 1 0 C0.67 2.97 0.34 5.94 0 9 C-1.32 9 -2.64 9 -4 9 C-2.80100302 5.9168649 -1.52299523 2.93720508 0 0 Z " fill="#6A73B2" transform="translate(188,210)"/>
<path d="M0 0 C0 0.66 0 1.32 0 2 C-0.66 2 -1.32 2 -2 2 C-2.66 3.32 -3.32 4.64 -4 6 C-6.31 6 -8.62 6 -11 6 C-10.01 5.34 -9.02 4.68 -8 4 C-6.989375 3.29875 -5.97875 2.5975 -4.9375 1.875 C-2 0 -2 0 0 0 Z " fill="#485199" transform="translate(322,206)"/>
<path d="M0 0 C2.31 0 4.62 0 7 0 C3.37464179 3.17218843 -0.51150278 4.42902597 -5 6 C-5 5.34 -5 4.68 -5 4 C-4.0409375 3.8453125 -4.0409375 3.8453125 -3.0625 3.6875 C-2.381875 3.460625 -1.70125 3.23375 -1 3 C-0.67 2.01 -0.34 1.02 0 0 Z " fill="#6870AE" transform="translate(193,111)"/>
<path d="M0 0 C0.66 1.65 1.32 3.3 2 5 C-1.3 4.67 -4.6 4.34 -8 4 C-2.66666667 0 -2.66666667 0 0 0 Z " fill="#7A81BC" transform="translate(227,39)"/>
<path d="M0 0 C3.63 1.65 7.26 3.3 11 5 C11 5.33 11 5.66 11 6 C6.78121808 6.19622241 3.82989106 5.80230168 0 4 C0 2.68 0 1.36 0 0 Z " fill="#DFE6F3" transform="translate(212,311)"/>
<path d="M0 0 C2.39073445 3.82517513 2.55966552 7.59665524 3 12 C2.34 11.34 1.68 10.68 1 10 C1 9.01 1 8.02 1 7 C0.34 7 -0.32 7 -1 7 C-1.04254356 5.00045254 -1.04080783 2.99958364 -1 1 C-0.67 0.67 -0.34 0.34 0 0 Z " fill="#6370A8" transform="translate(107,280)"/>
<path d="M0 0 C4.7517398 0.43197635 6.92000054 1.32769295 10 5 C5.75354935 5 3.61475228 3.18249194 0 1 C0 0.67 0 0.34 0 0 Z " fill="#585F95" transform="translate(153,417)"/>
<path d="M0 0 C-2.36595933 2.61500768 -4.86049226 4.38999603 -8 6 C-8.66 5.67 -9.32 5.34 -10 5 C-9 2 -9 2 -7.25 0.8125 C-4.70039426 -0.10819096 -2.69076919 -0.14948718 0 0 Z " fill="#595C99" transform="translate(355,413)"/>
<path d="M0 0 C-2.52956528 3.0916909 -5.22454612 3.90931332 -9 5 C-6.81610567 0.16423399 -5.20641855 -0.13701101 0 0 Z " fill="#595C92" transform="translate(364,408)"/>
<path d="M0 0 C-0.33 0.99 -0.66 1.98 -1 3 C-4.63 3 -8.26 3 -12 3 C-7.74582052 0.87291026 -4.71473296 0 0 0 Z " fill="#4A5193" transform="translate(289,390)"/>
<path d="M0 0 C0 2 0 2 -1.625 3.6875 C-4.77833336 5.43013159 -6.58419039 4.8539524 -10 4 C-6.86268382 1.90845588 -3.85464592 0 0 0 Z " fill="#40498A" transform="translate(309,383)"/>
<path d="M0 0 C2 3 2 3 2 5 C0.35 5.66 -1.3 6.32 -3 7 C-3.66 6.34 -4.32 5.68 -5 5 C-3.35 3.35 -1.7 1.7 0 0 Z " fill="#3F4B8E" transform="translate(353,352)"/>
<path d="M0 0 C4.50802601 1.25805377 7.4912812 2.90407165 11 6 C9.35 6 7.7 6 6 6 C5.67 5.01 5.34 4.02 5 3 C3.35 2.67 1.7 2.34 0 2 C0 1.34 0 0.68 0 0 Z " fill="#7C80BC" transform="translate(291,49)"/>
<path d="M0 0 C1.32 0 2.64 0 4 0 C4 0.66 4 1.32 4 2 C4.99 2 5.98 2 7 2 C7 2.66 7 3.32 7 4 C5.02 4.33 3.04 4.66 1 5 C0.67 3.35 0.34 1.7 0 0 Z " fill="#253287" transform="translate(305,433)"/>
<path d="M0 0 C4.7517398 0.43197635 6.92000054 1.32769295 10 5 C5.75354935 5 3.61475228 3.18249194 0 1 C0 0.67 0 0.34 0 0 Z " fill="#5D66A0" transform="translate(169,426)"/>
<path d="M0 0 C2.37948772 0.17625835 3.70225849 0.69719773 5.37890625 2.40234375 C6.62115486 3.90649092 7.81376056 5.45129851 9 7 C6 7 6 7 3.8125 5.125 C2 3 2 3 2 1 C1.34 0.67 0.68 0.34 0 0 Z " fill="#3F478B" transform="translate(147,354)"/>
<path d="M0 0 C2.97 0.33 5.94 0.66 9 1 C9 2.32 9 3.64 9 5 C5.54074837 3.7508258 2.85306797 2.32472205 0 0 Z " fill="#4D56A1" transform="translate(365,314)"/>
<path d="M0 0 C1.65 0.33 3.3 0.66 5 1 C5 1.99 5 2.98 5 4 C4.67 4.33 4.34 4.66 4 5 C2.32457024 4.71395102 0.65614657 4.38218767 -1 4 C-0.67 2.68 -0.34 1.36 0 0 Z " fill="#646DB3" transform="translate(440,135)"/>
<path d="M0 0 C4.55384615 -0.36923077 4.55384615 -0.36923077 6.8125 1.5 C7.204375 1.995 7.59625 2.49 8 3 C5.21176345 4.0326802 4.1322726 4.04509293 1.25 3.0625 C0.5075 2.711875 -0.235 2.36125 -1 2 C-0.67 1.34 -0.34 0.68 0 0 Z " fill="#6F76B9" transform="translate(298,109)"/>
<path d="M0 0 C1.32 0.33 2.64 0.66 4 1 C1.36 2.65 -1.28 4.3 -4 6 C-4.33 5.01 -4.66 4.02 -5 3 C-4.360625 2.87625 -3.72125 2.7525 -3.0625 2.625 C-2.0415625 2.315625 -2.0415625 2.315625 -1 2 C-0.67 1.34 -0.34 0.68 0 0 Z " fill="#6D709D" transform="translate(285,450)"/>
<path d="M0 0 C0.99 0.33 1.98 0.66 3 1 C0.14693203 3.32472205 -2.54074837 4.7508258 -6 6 C-6 5.01 -6 4.02 -6 3 C-4.02 2.67 -2.04 2.34 0 2 C0 1.34 0 0.68 0 0 Z " fill="#6D71A2" transform="translate(312,435)"/>
<path d="M0 0 C-3.4019487 2.09350689 -6.05272412 2.17942163 -10 2 C-10 1.34 -10 0.68 -10 0 C-6.42355152 -1.2380014 -3.66305234 -0.74926071 0 0 Z " fill="#343C87" transform="translate(278,394)"/>
<path d="M0 0 C2.9719385 1.12451727 5.33440687 2.22293791 8 4 C8 4.66 8 5.32 8 6 C2.33846154 4.52307692 2.33846154 4.52307692 0.625 1.875 C0.41875 1.25625 0.2125 0.6375 0 0 Z " fill="#565D92" transform="translate(104,388)"/>
<path d="M0 0 C-0.66 1.65 -1.32 3.3 -2 5 C-4.97 4.505 -4.97 4.505 -8 4 C-2.7826087 0 -2.7826087 0 0 0 Z " fill="#6D76B2" transform="translate(222,182)"/>
<path d="M0 0 C1.32 0 2.64 0 4 0 C2.55746343 3.36591866 0.66735273 5.51047079 -2 8 C-1.34 5.36 -0.68 2.72 0 0 Z " fill="#626CAC" transform="translate(129,161)"/>
<path d="M0 0 C0.66 0.33 1.32 0.66 2 1 C1.01 2.485 1.01 2.485 0 4 C-3.625 4.6875 -3.625 4.6875 -7 5 C-4.88437775 2.67281553 -2.94982021 1.14186589 0 0 Z " fill="#8D93BD" transform="translate(209,48)"/>
<path d="M0 0 C1.9375 0.3125 1.9375 0.3125 4 1 C4.33 1.99 4.66 2.98 5 4 C3.35 4.66 1.7 5.32 0 6 C0 4.02 0 2.04 0 0 Z " fill="#4E5393" transform="translate(322,426)"/>
<path d="M0 0 C1 2 1 2 0.8125 3.9375 C-0.22687271 6.57590764 -1.6538835 7.48637645 -4 9 C-4.66 8.67 -5.32 8.34 -6 8 C-4.02 5.36 -2.04 2.72 0 0 Z " fill="#DAE0F3" transform="translate(134,160)"/>
<path d="M0 0 C3.33523252 1.38009621 5.18607951 2.84950652 7 6 C6.67 6.99 6.34 7.98 6 9 C4.99406757 7.8803014 3.9954151 6.7540588 3 5.625 C2.443125 4.99851563 1.88625 4.37203125 1.3125 3.7265625 C0 2 0 2 0 0 Z " fill="#666EAC" transform="translate(360,151)"/>
<path d="M0 0 C0.94875 0.350625 1.8975 0.70125 2.875 1.0625 C2.545 2.0525 2.215 3.0425 1.875 4.0625 C-1.04017292 2.98848892 -2.90310176 2.28439824 -5.125 0.0625 C-3.125 -0.9375 -3.125 -0.9375 0 0 Z " fill="#5A659B" transform="translate(227.125,455.9375)"/>
<path d="M0 0 C-5.14285714 4.42857143 -5.14285714 4.42857143 -9 5 C-7.35234966 0.05704899 -4.76872479 -0.25776891 0 0 Z " fill="#63689A" transform="translate(382,398)"/>
<path d="M0 0 C0.515625 0.680625 1.03125 1.36125 1.5625 2.0625 C-2.49356165 1.59449289 -5.90338679 1.18296792 -9.4375 -0.9375 C-3.0375 -2.41442308 -3.0375 -2.41442308 0 0 Z " fill="#CBD1E8" transform="translate(215.4375,388.9375)"/>
<path d="M0 0 C3.55780196 0.60990891 6.6828589 1.5783681 10 3 C6.18510326 4.46726798 3.70988378 3.43336419 0 2 C0 1.34 0 0.68 0 0 Z " fill="#6870AD" transform="translate(275,181)"/>
<path d="M0 0 C2.75 -0.25 2.75 -0.25 6 0 C8.375 2 8.375 2 10 4 C8.51882199 3.71872579 7.04006751 3.42466268 5.5625 3.125 C4.73878906 2.96257812 3.91507812 2.80015625 3.06640625 2.6328125 C2.38449219 2.42398438 1.70257813 2.21515625 1 2 C0.67 1.34 0.34 0.68 0 0 Z " fill="#747DB0" transform="translate(285,106)"/>
<path d="M0 0 C0 0.66 0 1.32 0 2 C-2.35438733 3.42944945 -3.48032433 4.08661261 -6.25 3.625 C-6.8275 3.41875 -7.405 3.2125 -8 3 C-4.93882432 0.37613513 -4.26826873 0 0 0 Z " fill="#7882B1" transform="translate(180,66)"/>
<path d="M0 0 C0.33 0.99 0.66 1.98 1 3 C-0.65 3.66 -2.3 4.32 -4 5 C-4.33 4.01 -4.66 3.02 -5 2 C-2 0 -2 0 0 0 Z " fill="#696FB7" transform="translate(184,63)"/>
<path d="M0 0 C3.37503669 1.1858237 5.64722731 2.27573689 8 5 C7.01 5.33 6.02 5.66 5 6 C5 5.34 5 4.68 5 4 C4.360625 3.896875 3.72125 3.79375 3.0625 3.6875 C2.381875 3.460625 1.70125 3.23375 1 3 C0.67 2.01 0.34 1.02 0 0 Z " fill="#8A8EBD" transform="translate(306,57)"/>
<path d="M0 0 C-6.75 4 -6.75 4 -9 4 C-9 3.34 -9 2.68 -9 2 C-8.01 2 -7.02 2 -6 2 C-6 1.34 -6 0.68 -6 0 C-3.50907189 -1.24546405 -2.58919267 -0.7767578 0 0 Z " fill="#606298" transform="translate(373,404)"/>
<path d="M0 0 C4 1 4 1 6 3 C5.67 4.32 5.34 5.64 5 7 C3.35 4.69 1.7 2.38 0 0 Z " fill="#DCE0F1" transform="translate(133,336)"/>
<path d="M0 0 C0.33 0.66 0.66 1.32 1 2 C1.66 2.33 2.32 2.66 3 3 C1.68 4.32 0.36 5.64 -1 7 C-2 4 -2 4 -1.0625 1.8125 C-0.5365625 0.9153125 -0.5365625 0.9153125 0 0 Z " fill="#E7EEF3" transform="translate(371,325)"/>
<path d="M0 0 C0.33 0.66 0.66 1.32 1 2 C0.34 2.66 -0.32 3.32 -1 4 C-1 4.99 -1 5.98 -1 7 C-1.99 7 -2.98 7 -4 7 C-3.6875 4.625 -3.6875 4.625 -3 2 C-2.01 1.34 -1.02 0.68 0 0 Z " fill="#EDF2F6" transform="translate(164,131)"/>
<path d="M0 0 C-3.6441774 2.4294516 -5.71241272 2.16179575 -10 2 C-6.80505194 -1.19494806 -4.22040044 -1.35655728 0 0 Z " fill="#E5EBFA" transform="translate(218,108)"/>
</svg>
